<svg xmlns="http://www.w3.org/2000/svg" width="64" height="64" viewBox="0 0 64 64">
  <!-- Engine block -->
  <rect x="14" y="20" width="36" height="32" rx="2" fill="#555" stroke="#333" stroke-width="2"/>
  <!-- Cylinder head -->
  <rect x="18" y="14" width="28" height="8" rx="1" fill="#666" stroke="#333" stroke-width="2"/>
  <!-- Oil pan -->
  <path d="M 16 52 L 16 56 Q 16 58 18 58 L 46 58 Q 48 58 48 56 L 48 52" fill="#444" stroke="#333" stroke-width="2"/>
  <!-- Pistons indicator lines -->
  <line x1="24" y1="22" x2="24" y2="50" stroke="#888" stroke-width="2"/>
  <line x1="32" y1="22" x2="32" y2="50" stroke="#888" stroke-width="2"/>
  <line x1="40" y1="22" x2="40" y2="50" stroke="#888" stroke-width="2"/>
  <!-- Crankshaft output -->
  <circle cx="52" cy="36" r="6" fill="#333" stroke="#222" stroke-width="2"/>
  <circle cx="52" cy="36" r="3" fill="#666"/>
  <!-- Air intake -->
  <path d="M 32 14 L 32 8 L 28 8 L 28 6 L 36 6 L 36 8 L 32 8" fill="none" stroke="#333" stroke-width="2" stroke-linejoin="round"/>
  <!-- Exhaust -->
  <path d="M 12 28 L 8 28 L 8 32 L 12 32" fill="none" stroke="#c44" stroke-width="2"/>
  <!-- Engine mount points -->
  <circle cx="18" cy="24" r="2" fill="#888" stroke="#333" stroke-width="1"/>
  <circle cx="46" cy="24" r="2" fill="#888" stroke="#333" stroke-width="1"/>
</svg>
