<svg xmlns="http://www.w3.org/2000/svg" width="64" height="64" viewBox="0 0 64 64">
  <!-- Wheel outer rim -->
  <circle cx="32" cy="32" r="24" fill="none" stroke="#333" stroke-width="2.5"/>
  <!-- Wheel inner rim -->
  <circle cx="32" cy="32" r="18" fill="none" stroke="#333" stroke-width="1.5"/>
  <!-- Center hub -->
  <circle cx="32" cy="32" r="6" fill="#666" stroke="#333" stroke-width="1.5"/>
  <!-- Spokes -->
  <line x1="32" y1="8" x2="32" y2="56" stroke="#333" stroke-width="1.5"/>
  <line x1="8" y1="32" x2="56" y2="32" stroke="#333" stroke-width="1.5"/>
  <line x1="14.7" y1="14.7" x2="49.3" y2="49.3" stroke="#333" stroke-width="1.5"/>
  <line x1="14.7" y1="49.3" x2="49.3" y2="14.7" stroke="#333" stroke-width="1.5"/>
  <!-- Tire tread -->
  <path d="M 32 6 A 26 26 0 0 1 40 7.5" fill="none" stroke="#555" stroke-width="2" stroke-linecap="round"/>
  <path d="M 45 10 A 26 26 0 0 1 52 16" fill="none" stroke="#555" stroke-width="2" stroke-linecap="round"/>
  <path d="M 56 24 A 26 26 0 0 1 57 32" fill="none" stroke="#555" stroke-width="2" stroke-linecap="round"/>
  <path d="M 56.5 40 A 26 26 0 0 1 52 48" fill="none" stroke="#555" stroke-width="2" stroke-linecap="round"/>
</svg>
